
<svg xmlns="http://www.w3.org/2000/svg" version="1.1" xmlns:xlink="http://www.w3.org/1999/xlink" viewBox="0 0 200 200">
    <g fill="#d8be9d" transform="matrix(5.372507869884575,0,0,5.372507869884575,-3.365326974599583,138.17604349892886)" stroke="#d8be9d" stroke-width="0">
        <path d="M8.41-3.78L8.41-3.78Q8.41-4.53 7.88-4.95Q7.34-5.37 6.01-5.82Q4.67-6.27 3.82-6.69L3.82-6.69Q1.05-8.05 1.05-10.42L1.05-10.42Q1.05-11.60 1.74-12.50Q2.43-13.41 3.69-13.91Q4.95-14.41 6.52-14.41L6.52-14.41Q8.06-14.41 9.27-13.87Q10.49-13.32 11.16-12.31Q11.84-11.30 11.84-10L11.84-10L8.42-10Q8.42-10.87 7.89-11.35Q7.35-11.83 6.45-11.83L6.45-11.83Q5.53-11.83 5.00-11.42Q4.46-11.02 4.46-10.39L4.46-10.39Q4.46-9.84 5.05-9.40Q5.63-8.96 7.11-8.48Q8.58-8.01 9.53-7.46L9.53-7.46Q11.84-6.13 11.84-3.80L11.84-3.80Q11.84-1.93 10.43-0.87Q9.02 0.20 6.57 0.20L6.57 0.20Q4.84 0.20 3.44-0.42Q2.04-1.04 1.33-2.12Q0.63-3.20 0.63-4.61L0.63-4.61L4.06-4.61Q4.06-3.47 4.65-2.92Q5.24-2.38 6.57-2.38L6.57-2.38Q7.42-2.38 7.92-2.75Q8.41-3.12 8.41-3.78ZM21.46 0L18.43-5.29L17.02-3.75L17.02 0L13.59 0L13.59-14.22L17.02-14.22L17.02-7.95L18.21-9.76L21.28-14.22L25.52-14.22L20.71-7.93L25.52 0L21.46 0ZM34.18 0L31.67-5.02L29.81-5.02L29.81 0L26.39 0L26.39-14.22L31.98-14.22Q34.51-14.22 35.94-13.10Q37.36-11.97 37.36-9.92L37.36-9.92Q37.36-8.44 36.76-7.46Q36.16-6.48 34.88-5.88L34.88-5.88L37.85-0.15L37.85 0L34.18 0ZM29.81-11.57L29.81-7.67L31.98-7.67Q32.96-7.67 33.45-8.18Q33.95-8.69 33.95-9.61Q33.95-10.53 33.45-11.05Q32.95-11.57 31.98-11.57L31.98-11.57L29.81-11.57Z"></path>
    </g>
</svg>
